<svg width="137" height="51" viewBox="0 0 137 51" fill="none" xmlns="http://www.w3.org/2000/svg">
<path fill-rule="evenodd" clip-rule="evenodd" d="M36.5481 10.9707C36.5481 11.5721 37.0354 12.0595 37.6369 12.0595C38.2382 12.0595 38.7256 11.5721 38.7256 10.9707C38.7256 5.37139 34.1701 0.815674 28.5709 0.815674C26.5363 0.815674 24.573 1.41566 22.8924 2.55078C20.8349 3.94072 18.1744 3.94105 16.1168 2.55036C14.4363 1.41566 12.473 0.815674 10.4383 0.815674C4.83889 0.815674 0.283203 5.37139 0.283203 10.9707C0.283203 11.5721 0.770593 12.0595 1.37192 12.0595C1.97336 12.0595 2.46066 11.5721 2.46066 10.9707C2.46066 6.57167 6.03929 2.99305 10.4383 2.99305C12.0371 2.99305 13.579 3.46402 14.8977 4.35461C17.6956 6.24491 21.3122 6.24524 24.1115 4.3549C25.4302 3.46402 26.9722 2.99305 28.5709 2.99305C32.9695 2.99305 36.5481 6.57167 36.5481 10.9707ZM80.5041 12.4602C81.2165 11.9882 82.035 11.7522 82.9614 11.7522C83.8864 11.7522 84.7015 11.9882 85.4046 12.4602C86.1077 12.9324 86.6635 13.571 87.0703 14.3761C87.4771 15.1812 87.6813 16.1027 87.6813 17.139C87.6813 18.1759 87.4771 19.1108 87.0703 19.9436C86.6635 20.7764 86.1077 21.4334 85.4046 21.9148C84.7015 22.3967 83.8864 22.637 82.9614 22.637C82.035 22.637 81.2165 22.3967 80.5041 21.9148C79.7912 21.4334 79.2361 20.7764 78.8377 19.9436C78.4394 19.1108 78.241 18.1759 78.241 17.139C78.241 16.1027 78.4394 15.1812 78.8377 14.3761C79.2361 13.571 79.7912 12.9324 80.5041 12.4602ZM86.5983 10.6557C85.5989 10.0171 84.4691 9.69745 83.211 9.69745C82.5816 9.69745 81.9755 9.79945 81.3922 10.0029C80.8096 10.207 80.2816 10.48 79.8095 10.8223C79.3375 11.1646 78.9391 11.5537 78.6159 11.9882C78.5194 12.1178 78.4315 12.2487 78.3522 12.3808V5.00529C78.3522 4.69058 78.2502 4.42195 78.0467 4.20014C77.8426 3.97761 77.5746 3.867 77.2416 3.867C76.9262 3.867 76.6625 3.97761 76.4498 4.20014C76.2373 4.42195 76.1309 4.69058 76.1309 5.00529V23.4146C76.1309 23.7477 76.2373 24.0205 76.4498 24.2332C76.6625 24.4458 76.9262 24.5528 77.2416 24.5528C77.5746 24.5528 77.8426 24.4416 78.0467 24.2197C78.2502 23.9972 78.3522 23.7292 78.3522 23.4146V22.185C78.3879 22.234 78.4247 22.2828 78.4628 22.3315C78.796 22.7575 79.2077 23.1509 79.699 23.5116C80.1887 23.8724 80.7352 24.1595 81.3369 24.3721C81.9381 24.5848 82.5816 24.6918 83.2669 24.6918C84.506 24.6918 85.6215 24.3629 86.6124 23.7058C87.6019 23.0489 88.3901 22.1557 88.9726 21.0267C89.5553 19.8975 89.8473 18.6018 89.8473 17.139C89.8473 15.6767 89.5553 14.3903 88.9726 13.2796C88.3901 12.1689 87.5977 11.2943 86.5983 10.6557ZM57.6756 22.6505C57.4719 22.4562 57.222 22.3591 56.9261 22.3591H49.9484L57.7034 11.8911C57.8146 11.743 57.8883 11.6048 57.9255 11.4744C57.9625 11.3453 57.9903 11.2156 58.0089 11.0859C58.0089 10.7712 57.9117 10.5075 57.7175 10.2949C57.5229 10.0822 57.2774 9.97522 56.9814 9.97522H48.4573C48.161 9.97522 47.9111 10.0724 47.7074 10.2666C47.5035 10.4616 47.4023 10.7067 47.4023 11.003C47.4023 11.2801 47.5035 11.5211 47.7074 11.7246C47.9111 11.9287 48.161 12.03 48.4573 12.03H54.8963L47.2077 22.4704C47.0779 22.637 46.99 22.7851 46.9441 22.9148C46.8976 23.0445 46.8745 23.2019 46.8745 23.3868C46.8558 23.5903 46.9441 23.8128 47.1382 24.0531C47.3327 24.2934 47.5964 24.4139 47.9296 24.4139H56.9261C57.222 24.4139 57.4719 24.3125 57.6756 24.1084C57.8791 23.905 57.9811 23.664 57.9811 23.3868C57.9811 23.0905 57.8791 22.8454 57.6756 22.6505ZM2.50717 48.5757C3.01979 48.8717 3.63644 49.0196 4.35716 49.0196C4.80047 49.0196 5.21622 48.9573 5.60434 48.833C5.99234 48.7085 6.33534 48.5252 6.63327 48.2831C6.73729 48.2022 6.79604 48.1114 6.81005 48.0106C6.82388 47.9096 6.80482 47.8188 6.75287 47.7382C6.70092 47.6574 6.62448 47.607 6.52417 47.5867C6.42362 47.5666 6.31114 47.5969 6.1864 47.6776C5.68058 48.0677 5.07776 48.2627 4.378 48.2627C3.55328 48.2627 2.92293 48.0106 2.48642 47.5061C2.04991 47.0015 1.83166 46.2886 1.83166 45.3669C1.83166 44.4523 2.04991 43.7423 2.48642 43.2378C2.92293 42.7334 3.55328 42.4811 4.378 42.4811C5.07776 42.4811 5.67357 42.6728 6.16568 43.0562C6.2903 43.1438 6.40287 43.1757 6.50342 43.1522C6.60376 43.1286 6.68166 43.0748 6.73729 42.9907C6.79268 42.9066 6.81162 42.8108 6.79435 42.7031C6.77698 42.5956 6.70953 42.5013 6.5918 42.4206C6.30758 42.1986 5.9715 42.027 5.58362 41.9059C5.1955 41.7849 4.78675 41.7243 4.35716 41.7243C3.63644 41.7243 3.01979 41.8724 2.50717 42.1683C1.99431 42.4643 1.60126 42.8847 1.32752 43.4296C1.05376 43.9745 0.916992 44.6202 0.916992 45.3669C0.916992 46.1203 1.05376 46.7696 1.32752 47.3143C1.60126 47.8592 1.99431 48.2797 2.50717 48.5757ZM11.2998 47.8743C11.0157 48.2007 10.6382 48.3637 10.167 48.3637C9.68903 48.3637 9.30949 48.2007 9.02905 47.8743C8.74836 47.5481 8.60803 47.0823 8.60803 46.4768C8.60803 45.8648 8.74836 45.3972 9.02905 45.0744C9.30949 44.7514 9.68903 44.59 10.167 44.59C10.6382 44.59 11.0157 44.7514 11.2998 45.0744C11.5839 45.3972 11.726 45.8648 11.726 46.4768C11.726 47.0823 11.5839 47.5481 11.2998 47.8743ZM8.88869 48.7067C9.24875 48.9154 9.67499 49.0196 10.167 49.0196C10.652 49.0196 11.0765 48.9154 11.4402 48.7067C11.804 48.4983 12.0846 48.204 12.282 47.824C12.4796 47.4439 12.5782 46.995 12.5782 46.4768C12.5782 45.9589 12.4796 45.5099 12.282 45.1298C12.0846 44.7498 11.804 44.4555 11.4402 44.2468C11.0765 44.0384 10.652 43.9341 10.167 43.9341C9.67499 43.9341 9.24875 44.0384 8.88869 44.2468C8.52833 44.4555 8.24945 44.7498 8.05204 45.1298C7.85451 45.5099 7.75586 45.9589 7.75586 46.4768C7.75586 46.995 7.85451 47.4439 8.05204 47.824C8.24945 48.204 8.52833 48.4983 8.88869 48.7067ZM14.7925 48.3739H16.5074C16.8539 48.3739 17.117 48.3031 17.2973 48.162C17.4774 48.0207 17.5675 47.8123 17.5675 47.5364C17.5675 47.2674 17.4774 47.0621 17.2973 46.9208C17.117 46.7795 16.8539 46.709 16.5074 46.709H14.7925V48.3739ZM14.7925 46.1539H16.4138C16.7324 46.1539 16.9785 46.0852 17.1517 45.9471C17.3249 45.8093 17.4116 45.6126 17.4116 45.3568C17.4116 45.1079 17.3249 44.9163 17.1517 44.7816C16.9785 44.6472 16.7324 44.5798 16.4138 44.5798H14.7925V46.1539ZM14.4287 48.9288C14.1377 48.9288 13.9922 48.7875 13.9922 48.505V44.4488C13.9922 44.1661 14.1377 44.025 14.4287 44.025H16.4555C17.0512 44.025 17.4912 44.1344 17.7754 44.3528C18.0594 44.5714 18.2015 44.8927 18.2015 45.3165C18.2015 45.5722 18.127 45.7941 17.978 45.9824C17.829 46.1708 17.6263 46.3087 17.37 46.3961C17.6818 46.4702 17.926 46.6115 18.1027 46.8199C18.2795 47.0284 18.3678 47.2807 18.3678 47.5767C18.3678 47.9938 18.2083 48.3234 17.8897 48.5655C17.5709 48.8077 17.1205 48.9288 16.5386 48.9288H14.4287ZM23.2522 47.8743C22.9681 48.2007 22.5906 48.3637 22.1194 48.3637C21.6481 48.3637 21.2706 48.2007 20.9866 47.8743C20.7023 47.5481 20.5604 47.0823 20.5604 46.4768C20.5604 45.8648 20.7023 45.3972 20.9866 45.0744C21.2706 44.7514 21.6481 44.59 22.1194 44.59C22.5906 44.59 22.9681 44.7514 23.2522 45.0744C23.5363 45.3972 23.6785 45.8648 23.6785 46.4768C23.6785 47.0823 23.5363 47.5481 23.2522 47.8743ZM19.7393 50.4019C19.7393 50.6778 19.8779 50.8157 20.155 50.8157C20.4391 50.8157 20.5812 50.6778 20.5812 50.4019V48.0711C20.7267 48.3672 20.9518 48.5993 21.2568 48.7674C21.5616 48.9354 21.908 49.0196 22.2961 49.0196C22.7464 49.0196 23.1395 48.9154 23.4757 48.7067C23.8117 48.4983 24.0716 48.204 24.2553 47.824C24.4387 47.4439 24.5306 46.995 24.5306 46.4768C24.5306 45.9522 24.4387 45.4998 24.2553 45.1197C24.0716 44.7398 23.8117 44.4472 23.4757 44.2419C23.1395 44.0367 22.7464 43.9341 22.2961 43.9341C21.9011 43.9341 21.5511 44.0199 21.2464 44.1914C20.9414 44.3629 20.7164 44.5967 20.5708 44.8927V44.368C20.5708 44.0922 20.4287 43.9543 20.1448 43.9543C19.8744 43.9543 19.7393 44.0922 19.7393 44.368V50.4019ZM28.0954 44.5396C27.6173 44.5396 27.2396 44.6843 26.9626 44.9734C26.6852 45.2627 26.5224 45.6428 26.474 46.1136H29.5401C29.5193 45.6159 29.3857 45.2291 29.1399 44.9532C28.8938 44.6774 28.5457 44.5396 28.0954 44.5396ZM28.2305 49.0196C27.4336 49.0196 26.8031 48.7925 26.3389 48.3384C25.8747 47.8844 25.6426 47.2674 25.6426 46.487C25.6426 45.9824 25.7465 45.5369 25.9544 45.15C26.1622 44.7633 26.4481 44.4638 26.8118 44.252C27.1756 44.04 27.5965 43.9342 28.0747 43.9342C28.7606 43.9342 29.2974 44.1478 29.6856 44.5749C30.0736 45.0022 30.2675 45.5889 30.2675 46.3355C30.2675 46.5442 30.1463 46.6485 29.9038 46.6485H26.4636C26.4913 47.2069 26.6576 47.6322 26.9626 47.9248C27.2673 48.2174 27.69 48.3638 28.2305 48.3638C28.4592 48.3638 28.6912 48.3352 28.9268 48.2779C29.1624 48.2208 29.391 48.1183 29.6128 47.9702C29.7722 47.8693 29.9054 47.8492 30.0129 47.9097C30.1203 47.9702 30.1757 48.0628 30.1791 48.1871C30.1827 48.3117 30.1117 48.4211 29.9661 48.5151C29.7375 48.6765 29.4655 48.801 29.1503 48.8884C28.835 48.9757 28.5283 49.0196 28.2305 49.0196ZM31.6289 48.6059C31.6289 48.8682 31.7536 48.9994 32.0031 48.9994C32.2526 48.9994 32.3772 48.8682 32.3772 48.6059V45.3568L33.9154 47.9904C33.9501 48.0443 33.9899 48.0897 34.0349 48.1265C34.0799 48.1637 34.144 48.1821 34.2272 48.1821C34.3034 48.1821 34.3639 48.1637 34.4092 48.1265C34.454 48.0897 34.4938 48.0443 34.5286 47.9904L36.0669 45.3568V48.6059C36.0669 48.8682 36.1915 48.9994 36.441 48.9994C36.6905 48.9994 36.8152 48.8682 36.8152 48.6059V44.3882C36.8152 44.099 36.6905 43.9542 36.441 43.9542C36.3231 43.9542 36.2313 43.9813 36.1656 44.0351C36.0996 44.0889 36.0424 44.1595 35.994 44.2468L34.2272 47.3042L32.4603 44.2468C32.4117 44.1595 32.3546 44.0889 32.2889 44.0351C32.223 43.9813 32.1277 43.9542 32.0031 43.9542C31.7536 43.9542 31.6289 44.099 31.6289 44.3882V48.6059ZM40.6813 44.5396C40.2033 44.5396 39.8255 44.6843 39.5485 44.9734C39.2713 45.2627 39.1083 45.6428 39.06 46.1136H42.126C42.1053 45.6159 41.9717 45.2291 41.726 44.9532C41.4798 44.6774 41.1317 44.5396 40.6813 44.5396ZM40.8164 49.0196C40.0197 49.0196 39.389 48.7925 38.925 48.3384C38.4606 47.8844 38.2285 47.2674 38.2285 46.487C38.2285 45.9824 38.3324 45.5369 38.5404 45.15C38.7482 44.7633 39.0341 44.4638 39.3978 44.252C39.7616 44.04 40.1824 43.9342 40.6606 43.9342C41.3465 43.9342 41.8835 44.1478 42.2716 44.5749C42.6595 45.0022 42.8535 45.5889 42.8535 46.3355C42.8535 46.5442 42.7323 46.6485 42.4898 46.6485H39.0496C39.0772 47.2069 39.2435 47.6322 39.5485 47.9248C39.8533 48.2174 40.276 48.3638 40.8164 48.3638C41.0452 48.3638 41.2771 48.3352 41.5127 48.2779C41.7483 48.2208 41.9769 48.1183 42.1987 47.9702C42.3581 47.8693 42.4914 47.8492 42.599 47.9097C42.7063 47.9702 42.7616 48.0628 42.7652 48.1871C42.7686 48.3117 42.6976 48.4211 42.5521 48.5151C42.3235 48.6765 42.0515 48.801 41.7362 48.8884C41.4209 48.9757 41.1143 49.0196 40.8164 49.0196ZM44.2158 48.5756C44.2158 48.8581 44.3576 48.9994 44.6418 48.9994C44.919 48.9994 45.0576 48.8581 45.0576 48.5756V46.7291H47.8119V48.5756C47.8119 48.8581 47.9504 48.9994 48.2276 48.9994C48.5116 48.9994 48.6537 48.8581 48.6537 48.5756V44.3679C48.6537 44.0923 48.5116 43.9542 48.2276 43.9542C47.9504 43.9542 47.8119 44.0923 47.8119 44.3679V46.0631H45.0576V44.3679C45.0576 44.0923 44.919 43.9542 44.6418 43.9542C44.3576 43.9542 44.2158 44.0923 44.2158 44.3679V48.5756ZM50.7943 48.9994C50.5101 48.9994 50.3682 48.8581 50.3682 48.5756V44.3679C50.3682 44.0923 50.5101 43.9542 50.7943 43.9542C51.0714 43.9542 51.2101 44.0923 51.2101 44.3679V46.0631H53.9643V44.3679C53.9643 44.0923 54.1028 43.9542 54.3799 43.9542C54.664 43.9542 54.8062 44.0923 54.8062 44.3679V48.5756C54.8062 48.8581 54.664 48.9994 54.3799 48.9994C54.1028 48.9994 53.9643 48.8581 53.9643 48.5756V46.7291H51.2101V48.5756C51.2101 48.8581 51.0714 48.9994 50.7943 48.9994ZM59.2753 47.9853C59.0118 48.2645 58.6724 48.4041 58.2566 48.4041C57.9171 48.4041 57.6486 48.3168 57.4513 48.1417C57.2538 47.9669 57.1549 47.7416 57.1549 47.4657C57.1549 47.2505 57.219 47.0807 57.3472 46.9562C57.4754 46.8318 57.7005 46.7442 58.0229 46.6938C58.345 46.6434 58.7867 46.6181 59.348 46.6181H59.6701V46.9208C59.6701 47.3514 59.5384 47.7063 59.2753 47.9853ZM57.1913 48.8228C57.4649 48.9541 57.775 49.0196 58.1215 49.0196C58.4887 49.0196 58.8091 48.9354 59.0829 48.7673C59.3566 48.5992 59.5592 48.3705 59.6909 48.0812V48.5757C59.6909 48.8581 59.826 48.9995 60.0963 48.9995C60.3525 48.9995 60.4808 48.8581 60.4808 48.5757V45.8411C60.4808 45.1888 60.3231 44.7077 60.008 44.3982C59.6925 44.089 59.2093 43.9341 58.558 43.9341C58.2878 43.9341 58.002 43.9679 57.7005 44.035C57.3991 44.1024 57.0994 44.21 56.8016 44.3579C56.6977 44.405 56.6301 44.4739 56.5989 44.5648C56.5677 44.6555 56.5677 44.7431 56.5989 44.8271C56.6301 44.9113 56.6855 44.9719 56.7652 45.0087C56.8448 45.0458 56.9436 45.0339 57.0615 44.9734C57.3248 44.8389 57.5792 44.7413 57.8253 44.6808C58.0711 44.6202 58.3155 44.59 58.558 44.59C58.946 44.59 59.2284 44.6826 59.4052 44.8674C59.5817 45.0526 59.6701 45.3535 59.6701 45.7706V46.0834H59.3375C58.5753 46.0834 57.9743 46.1287 57.5344 46.2196C57.0941 46.3104 56.779 46.4602 56.5885 46.6686C56.3979 46.8771 56.3027 47.1597 56.3027 47.5162C56.3027 47.7987 56.3823 48.0543 56.5417 48.2831C56.701 48.5118 56.9176 48.6916 57.1913 48.8228ZM63.9931 46.4668H65.3131V44.6001H63.9931C63.5843 44.6001 63.2829 44.6825 63.0889 44.8473C62.895 45.0121 62.798 45.2392 62.798 45.5283C62.798 45.8244 62.895 46.0548 63.0889 46.2196C63.2829 46.3845 63.5843 46.4668 63.9931 46.4668ZM65.7185 48.9995C65.4483 48.9995 65.3131 48.8683 65.3131 48.6059V47.0621H64.5752C64.298 47.0621 64.0641 47.1277 63.8736 47.2588C63.683 47.3899 63.5289 47.5564 63.4111 47.7583L62.8187 48.7673C62.7425 48.8952 62.6489 48.9692 62.538 48.9893C62.4271 49.0094 62.3251 48.9926 62.2315 48.9388C62.1379 48.8851 62.072 48.8077 62.034 48.7068C61.9959 48.6059 62.0115 48.4983 62.0808 48.3839L62.5797 47.5666C62.6628 47.4187 62.772 47.2875 62.9071 47.173C63.0422 47.0587 63.1859 46.9748 63.3384 46.9208C62.9088 46.8603 62.5762 46.7073 62.3406 46.4616C62.105 46.2162 61.9873 45.8951 61.9873 45.4981C61.9873 45.0474 62.1413 44.6893 62.4498 44.4234C62.758 44.1577 63.2204 44.025 63.8373 44.025H65.6666C65.9643 44.025 66.1134 44.1662 66.1134 44.4487V48.6059C66.1134 48.7337 66.077 48.8313 66.0043 48.8985C65.9315 48.9657 65.8362 48.9995 65.7185 48.9995ZM71.4031 48.7017C71.7703 48.9136 72.2067 49.0196 72.7126 49.0196C72.9621 49.0196 73.2183 48.9809 73.4818 48.9036C73.7449 48.8263 73.9874 48.7002 74.2092 48.5252C74.32 48.4513 74.3703 48.3536 74.3599 48.2325C74.3496 48.1114 74.2958 48.0191 74.1989 47.955C74.1018 47.8913 73.9874 47.9031 73.8559 47.9905C73.6689 48.125 73.4833 48.2191 73.2998 48.2729C73.1162 48.3268 72.9377 48.3536 72.7645 48.3536C72.238 48.3536 71.8327 48.1839 71.5485 47.844C71.2644 47.5044 71.1224 47.0418 71.1224 46.4566C71.1224 45.8581 71.2644 45.399 71.5485 45.0794C71.8327 44.7599 72.238 44.6001 72.7645 44.6001C72.9377 44.6001 73.1162 44.627 73.2998 44.6808C73.4833 44.7347 73.6689 44.8288 73.8559 44.9633C73.9874 45.0509 74.1035 45.0642 74.204 45.0036C74.3044 44.9431 74.3634 44.8523 74.3808 44.7313C74.3979 44.6102 74.3478 44.5093 74.23 44.4285C74.0082 44.2537 73.7622 44.1275 73.4921 44.0501C73.2219 43.9729 72.9621 43.9341 72.7126 43.9341C71.9504 43.9341 71.3511 44.1578 70.9145 44.6052C70.478 45.0526 70.2598 45.6663 70.2598 46.4466C70.2598 46.9647 70.3584 47.417 70.556 47.8037C70.7535 48.1906 71.0357 48.4898 71.4031 48.7017ZM77.0055 48.9995C76.7213 48.9995 76.5794 48.8581 76.5794 48.5756V44.6808H75.0619C74.7987 44.6808 74.667 44.5698 74.667 44.3478C74.667 44.1326 74.7987 44.0249 75.0619 44.0249H78.9491C79.2053 44.0249 79.3336 44.1326 79.3336 44.3478C79.3336 44.5698 79.2053 44.6808 78.9491 44.6808H77.4213V48.5756C77.4213 48.8581 77.2827 48.9995 77.0055 48.9995ZM83.418 47.8743C83.1339 48.2007 82.7563 48.3637 82.2851 48.3637C81.8072 48.3637 81.4277 48.2007 81.1472 47.8743C80.8665 47.5481 80.7262 47.0823 80.7262 46.4768C80.7262 45.8648 80.8665 45.3972 81.1472 45.0744C81.4277 44.7514 81.8072 44.59 82.2851 44.59C82.7563 44.59 83.1339 44.7514 83.418 45.0744C83.7021 45.3972 83.8442 45.8648 83.8442 46.4768C83.8442 47.0823 83.7021 47.5481 83.418 47.8743ZM81.0069 48.7067C81.3669 48.9154 81.7932 49.0196 82.2851 49.0196C82.7701 49.0196 83.1946 48.9154 83.5583 48.7067C83.9221 48.4983 84.2028 48.204 84.4002 47.824C84.5977 47.4439 84.6964 46.995 84.6964 46.4768C84.6964 45.9589 84.5977 45.5099 84.4002 45.1298C84.2028 44.7498 83.9221 44.4555 83.5583 44.2468C83.1946 44.0384 82.7701 43.9341 82.2851 43.9341C81.7932 43.9341 81.3669 44.0384 81.0069 44.2468C80.6465 44.4555 80.3676 44.7498 80.1702 45.1298C79.9727 45.5099 79.874 45.9589 79.874 46.4768C79.874 46.995 79.9727 47.4439 80.1702 47.824C80.3676 48.204 80.6465 48.4983 81.0069 48.7067ZM86.4844 48.9994C86.235 48.9994 86.1104 48.8682 86.1104 48.6059V44.3882C86.1104 44.099 86.235 43.9542 86.4844 43.9542C86.6092 43.9542 86.7044 43.9813 86.7702 44.0351C86.836 44.0889 86.8932 44.1595 86.9418 44.2468L88.7086 47.3042L90.4754 44.2468C90.5238 44.1595 90.581 44.0889 90.647 44.0351C90.7128 43.9813 90.8045 43.9542 90.9224 43.9542C91.1719 43.9542 91.2965 44.099 91.2965 44.3882V48.6059C91.2965 48.8682 91.1719 48.9994 90.9224 48.9994C90.673 48.9994 90.5482 48.8682 90.5482 48.6059V45.3568L89.01 47.9904C88.9753 48.0443 88.9354 48.0897 88.8905 48.1265C88.8454 48.1637 88.7848 48.1821 88.7086 48.1821C88.6255 48.1821 88.5613 48.1637 88.5163 48.1265C88.4712 48.0897 88.4314 48.0443 88.3968 47.9904L86.8586 45.3568V48.6059C86.8586 48.8682 86.7339 48.9994 86.4844 48.9994ZM95.7654 47.9853C95.5019 48.2645 95.1626 48.4041 94.7469 48.4041C94.4073 48.4041 94.1388 48.3168 93.9414 48.1417C93.7439 47.9669 93.6451 47.7416 93.6451 47.4657C93.6451 47.2505 93.7091 47.0807 93.8374 46.9562C93.9656 46.8318 94.1908 46.7442 94.513 46.6938C94.8352 46.6434 95.277 46.6181 95.8381 46.6181H96.1603V46.9208C96.1603 47.3514 96.0286 47.7063 95.7654 47.9853ZM93.6815 48.8228C93.9551 48.9541 94.2651 49.0196 94.6118 49.0196C94.9789 49.0196 95.2993 48.9354 95.5732 48.7673C95.8468 48.5992 96.0494 48.3705 96.1811 48.0812V48.5757C96.1811 48.8581 96.3162 48.9995 96.5864 48.9995C96.8427 48.9995 96.9709 48.8581 96.9709 48.5757V45.8411C96.9709 45.1888 96.8133 44.7077 96.4982 44.3982C96.1828 44.089 95.6994 43.9341 95.0483 43.9341C94.7781 43.9341 94.4922 43.9679 94.1908 44.035C93.8894 44.1024 93.5896 44.21 93.2918 44.3579C93.1878 44.405 93.1204 44.4739 93.0892 44.5648C93.0579 44.6555 93.0579 44.7431 93.0892 44.8271C93.1204 44.9113 93.1757 44.9719 93.2555 45.0087C93.335 45.0458 93.4337 45.0339 93.5516 44.9734C93.8149 44.8389 94.0695 44.7413 94.3155 44.6808C94.5614 44.6202 94.8057 44.59 95.0483 44.59C95.4362 44.59 95.7186 44.6826 95.8953 44.8674C96.072 45.0526 96.1603 45.3535 96.1603 45.7706V46.0834H95.8277C95.0654 46.0834 94.4645 46.1287 94.0246 46.2196C93.5844 46.3104 93.2693 46.4602 93.0787 46.6686C92.8881 46.8771 92.793 47.1597 92.793 47.5162C92.793 47.7987 92.8726 48.0543 93.0319 48.2831C93.1912 48.5118 93.4077 48.6916 93.6815 48.8228ZM100.14 48.9995C99.856 48.9995 99.7142 48.8581 99.7142 48.5756V44.6808H98.1967C97.9333 44.6808 97.8018 44.5698 97.8018 44.3478C97.8018 44.1326 97.9333 44.0249 98.1967 44.0249H102.084C102.34 44.0249 102.468 44.1326 102.468 44.3478C102.468 44.5698 102.34 44.6808 102.084 44.6808H100.556V48.5756C100.556 48.8581 100.417 48.9995 100.14 48.9995ZM106.554 47.8743C106.27 48.2007 105.892 48.3637 105.421 48.3637C104.943 48.3637 104.563 48.2007 104.283 47.8743C104.002 47.5481 103.862 47.0823 103.862 46.4768C103.862 45.8648 104.002 45.3972 104.283 45.0744C104.563 44.7514 104.943 44.59 105.421 44.59C105.892 44.59 106.27 44.7514 106.554 45.0744C106.838 45.3972 106.98 45.8648 106.98 46.4768C106.98 47.0823 106.838 47.5481 106.554 47.8743ZM104.143 48.7067C104.503 48.9154 104.929 49.0196 105.421 49.0196C105.906 49.0196 106.33 48.9154 106.694 48.7067C107.058 48.4983 107.339 48.204 107.536 47.824C107.733 47.4439 107.832 46.995 107.832 46.4768C107.832 45.9589 107.733 45.5099 107.536 45.1298C107.339 44.7498 107.058 44.4555 106.694 44.2468C106.33 44.0384 105.906 43.9341 105.421 43.9341C104.929 43.9341 104.503 44.0384 104.143 44.2468C103.782 44.4555 103.503 44.7498 103.306 45.1298C103.108 45.5099 103.01 45.9589 103.01 46.4768C103.01 46.995 103.108 47.4439 103.306 47.824C103.503 48.204 103.782 48.4983 104.143 48.7067ZM113.018 48.9995C112.741 48.9995 112.603 48.8581 112.603 48.5756V44.6808H110.566V45.3064C110.566 46.0061 110.519 46.5946 110.425 47.0722C110.332 47.5498 110.179 47.9399 109.968 48.2426C109.757 48.5454 109.474 48.7809 109.121 48.949C109.003 48.996 108.897 49.0027 108.804 48.9692C108.71 48.9355 108.641 48.8784 108.596 48.7976C108.551 48.7169 108.539 48.6296 108.56 48.5352C108.58 48.4412 108.65 48.3604 108.768 48.2931C109.031 48.1452 109.235 47.9484 109.381 47.7028C109.526 47.4572 109.628 47.1395 109.687 46.7493C109.746 46.3592 109.776 45.8681 109.776 45.2761V44.4891C109.776 44.1798 109.935 44.0249 110.254 44.0249H112.966C113.285 44.0249 113.444 44.1798 113.444 44.4891V48.5756C113.444 48.8581 113.302 48.9995 113.018 48.9995ZM118.401 47.8743C118.117 48.2007 117.74 48.3637 117.269 48.3637C116.791 48.3637 116.411 48.2007 116.131 47.8743C115.85 47.5481 115.71 47.0823 115.71 46.4768C115.71 45.8648 115.85 45.3972 116.131 45.0744C116.411 44.7514 116.791 44.59 117.269 44.59C117.74 44.59 118.117 44.7514 118.401 45.0744C118.686 45.3972 118.828 45.8648 118.828 46.4768C118.828 47.0823 118.686 47.5481 118.401 47.8743ZM115.99 48.7067C116.35 48.9154 116.777 49.0196 117.269 49.0196C117.754 49.0196 118.178 48.9154 118.542 48.7067C118.906 48.4983 119.186 48.204 119.384 47.824C119.581 47.4439 119.68 46.995 119.68 46.4768C119.68 45.9589 119.581 45.5099 119.384 45.1298C119.186 44.7498 118.906 44.4555 118.542 44.2468C118.178 44.0384 117.754 43.9341 117.269 43.9341C116.777 43.9341 116.35 44.0384 115.99 44.2468C115.63 44.4555 115.351 44.7498 115.154 45.1298C114.956 45.5099 114.857 45.9589 114.857 46.4768C114.857 46.995 114.956 47.4439 115.154 47.824C115.351 48.204 115.63 48.4983 115.99 48.7067ZM121.519 48.9995C121.235 48.9995 121.093 48.8516 121.093 48.5555V44.4891C121.093 44.1798 121.252 44.0249 121.571 44.0249H124.325C124.581 44.0249 124.71 44.1326 124.71 44.3478C124.71 44.5698 124.581 44.6808 124.325 44.6808H121.935V48.5555C121.935 48.8516 121.796 48.9995 121.519 48.9995ZM125.666 48.5555C125.666 48.8516 125.794 48.9994 126.051 48.9994C126.175 48.9994 126.274 48.9724 126.347 48.9187C126.42 48.865 126.48 48.8045 126.529 48.737L129.304 45.1349V48.5958C129.304 48.865 129.432 48.9994 129.688 48.9994C129.945 48.9994 130.073 48.865 130.073 48.5958V44.3882C130.073 44.099 129.945 43.9542 129.688 43.9542C129.564 43.9542 129.465 43.9795 129.392 44.0299C129.319 44.0803 129.255 44.1426 129.2 44.2166L126.435 47.8189V44.358C126.435 44.0889 126.307 43.9542 126.051 43.9542C125.794 43.9542 125.666 44.0889 125.666 44.358V48.5555ZM133.606 46.4668H134.926V44.6001H133.606C133.198 44.6001 132.896 44.6825 132.702 44.8473C132.508 45.0121 132.411 45.2392 132.411 45.5283C132.411 45.8244 132.508 46.0548 132.702 46.2196C132.896 46.3845 133.198 46.4668 133.606 46.4668ZM135.332 48.9995C135.062 48.9995 134.926 48.8683 134.926 48.6059V47.0621H134.188C133.911 47.0621 133.677 47.1277 133.487 47.2588C133.296 47.3899 133.142 47.5564 133.024 47.7583L132.432 48.7673C132.356 48.8952 132.262 48.9692 132.151 48.9893C132.04 49.0094 131.938 48.9926 131.845 48.9388C131.751 48.8851 131.685 48.8077 131.647 48.7068C131.609 48.6059 131.625 48.4983 131.694 48.3839L132.193 47.5666C132.276 47.4187 132.385 47.2875 132.52 47.173C132.655 47.0587 132.799 46.9748 132.952 46.9208C132.522 46.8603 132.189 46.7073 131.954 46.4616C131.718 46.2162 131.601 45.8951 131.601 45.4981C131.601 45.0474 131.755 44.6893 132.063 44.4234C132.371 44.1577 132.834 44.025 133.451 44.025H135.28C135.578 44.025 135.727 44.1662 135.727 44.4487V48.6059C135.727 48.7337 135.69 48.8313 135.617 48.8985C135.545 48.9657 135.449 48.9995 135.332 48.9995ZM71.2894 10.0589C71.6225 10.0589 71.8908 10.1652 72.0946 10.3778C72.2984 10.5912 72.4 10.8641 72.4 11.1972V18.7493C72.4 20.6198 71.8769 22.0678 70.8316 23.0949C69.7854 24.1227 68.3278 24.6357 66.458 24.6357C64.6069 24.6357 63.1582 24.1227 62.1128 23.0949C61.0666 22.0678 60.5439 20.6198 60.5439 18.7493V11.1972C60.5439 10.8641 60.6502 10.5912 60.8631 10.3778C61.0758 10.1652 61.3395 10.0589 61.6546 10.0589C61.9877 10.0589 62.2559 10.1652 62.4597 10.3778C62.6632 10.5912 62.7652 10.8641 62.7652 11.1972V18.7493C62.7652 20.0088 63.0888 20.9614 63.7369 21.6092C64.3848 22.2578 65.292 22.581 66.458 22.581C67.6427 22.581 68.5589 22.2578 69.207 21.6092C69.8549 20.9614 70.1788 20.0088 70.1788 18.7493V11.1972C70.1788 10.8641 70.2805 10.5912 70.4843 10.3778C70.6877 10.1652 70.9563 10.0589 71.2894 10.0589ZM99.6157 11.7522C98.6901 11.7522 97.8708 11.9882 97.1585 12.4602C96.4455 12.9324 95.8904 13.571 95.492 14.3761C95.0944 15.1812 94.8953 16.1027 94.8953 17.139C94.8953 18.1759 95.0944 19.1108 95.492 19.9436C95.8904 20.7764 96.4455 21.4334 97.1585 21.9148C97.8708 22.3967 98.6901 22.637 99.6157 22.637C100.541 22.637 101.356 22.3967 102.059 21.9148C102.763 21.4334 103.318 20.7764 103.725 19.9436C104.132 19.1108 104.336 18.1759 104.336 17.139C104.336 16.1027 104.132 15.1812 103.725 14.3761C103.318 13.571 102.763 12.9324 102.059 12.4602C101.356 11.9882 100.541 11.7522 99.6157 11.7522ZM99.866 9.69745C101.124 9.69745 102.254 10.0171 103.253 10.6557C104.253 11.2943 105.044 12.1689 105.627 13.2796C106.21 14.3903 106.502 15.6767 106.502 17.139C106.502 18.6018 106.21 19.8975 105.627 21.0267C105.044 22.1557 104.257 23.0489 103.267 23.7058C102.277 24.3629 101.161 24.6918 99.9212 24.6918C99.2359 24.6918 98.593 24.5848 97.9912 24.3721C97.3895 24.1595 96.8438 23.8724 96.3533 23.5116C95.8628 23.1509 95.4509 22.7575 95.1178 22.3315C95.0795 22.2825 95.0424 22.2333 95.0065 22.1841V23.4146C95.0065 23.7292 94.9045 23.9972 94.701 24.2197C94.4969 24.4416 94.2289 24.5528 93.8959 24.5528C93.5812 24.5528 93.3169 24.4458 93.1042 24.2332C92.8915 24.0205 92.7852 23.7477 92.7852 23.4146V5.00529C92.7852 4.69058 92.8915 4.42195 93.1042 4.20014C93.3169 3.97761 93.5812 3.867 93.8959 3.867C94.2289 3.867 94.4969 3.97761 94.701 4.20014C94.9045 4.42195 95.0065 4.69058 95.0065 5.00529V12.381C95.0858 12.2488 95.1737 12.1179 95.2702 11.9882C95.5941 11.5537 95.9924 11.1646 96.4645 10.8223C96.9365 10.48 97.4639 10.207 98.0471 10.0029C98.6298 9.79945 99.2359 9.69745 99.866 9.69745ZM120.221 14.376C120.656 15.1813 120.873 16.1212 120.873 17.195C120.873 18.2496 120.656 19.1846 120.221 19.9989C119.785 20.814 119.194 21.4568 118.444 21.9289C117.694 22.4009 116.847 22.637 115.903 22.637C114.977 22.637 114.135 22.4009 113.376 21.9289C112.617 21.4568 112.02 20.814 111.585 19.9989C111.15 19.1846 110.933 18.2496 110.933 17.195C110.933 16.1212 111.15 15.1813 111.585 14.376C112.02 13.571 112.617 12.9323 113.376 12.4603C114.135 11.9883 114.977 11.7522 115.903 11.7522C116.847 11.7522 117.694 11.9883 118.444 12.4603C119.194 12.9323 119.785 13.571 120.221 14.376ZM122.151 21.0542C122.78 19.9252 123.095 18.6387 123.095 17.195C123.095 15.7505 122.78 14.4647 122.151 13.3349C121.521 12.2058 120.665 11.3177 119.582 10.6691C118.5 10.022 117.273 9.69747 115.903 9.69747C114.552 9.69747 113.33 10.022 112.238 10.6691C111.145 11.3177 110.281 12.2058 109.642 13.3349C109.003 14.4647 108.684 15.7505 108.684 17.195C108.684 18.6387 109.003 19.9252 109.642 21.0542C110.281 22.1834 111.145 23.0722 112.238 23.7201C113.33 24.3678 114.552 24.6917 115.903 24.6917C117.273 24.6917 118.5 24.3678 119.582 23.7201C120.665 23.0722 121.521 22.1834 122.151 21.0542ZM134.907 9.89231C135.24 9.89231 135.503 9.99369 135.698 10.1972C135.892 10.4012 135.99 10.6323 135.99 10.8917C135.99 11.0215 135.966 11.1462 135.92 11.2666C135.873 11.3872 135.804 11.5027 135.712 11.6133L131.436 17.0953L135.823 22.6923C135.971 22.8963 136.045 23.1182 136.045 23.3585C136.045 23.6739 135.934 23.9418 135.712 24.1636C135.489 24.3863 135.23 24.4975 134.934 24.4975C134.583 24.4975 134.277 24.3302 134.018 23.9971L130.085 18.9906L126.16 24.0255C125.938 24.3218 125.642 24.4691 125.271 24.4691C125.031 24.4691 124.79 24.3771 124.55 24.192C124.309 24.0071 124.188 23.7661 124.188 23.4698C124.188 23.2296 124.272 22.9978 124.439 22.7759L128.767 17.3127L124.355 11.6969C124.188 11.5119 124.105 11.2901 124.105 11.0307C124.105 10.6975 124.221 10.4246 124.452 10.2113C124.684 9.99874 124.957 9.89231 125.271 9.89231C125.623 9.89231 125.919 10.0497 126.16 10.3637L130.186 15.5004L134.018 10.392C134.277 10.0589 134.574 9.89231 134.907 9.89231ZM19.5044 35.1279C8.90598 35.1279 0.283203 26.5049 0.283203 15.9063C0.283203 15.305 0.770504 14.8177 1.37183 14.8177C1.97339 14.8177 2.46066 15.305 2.46066 15.9063C2.46066 25.3048 10.1063 32.9505 19.5044 32.9505C28.9025 32.9505 36.5482 25.3048 36.5482 15.9063C36.5482 15.305 37.0354 14.8177 37.6369 14.8177C38.2382 14.8177 38.7255 15.305 38.7255 15.9063C38.7255 26.5049 30.1029 35.1279 19.5044 35.1279ZM8.45703 15.9063C8.45703 21.9984 13.4129 26.9542 19.5046 26.9542C25.5962 26.9542 30.552 21.9984 30.552 15.9063C30.552 15.305 30.0647 14.8177 29.4633 14.8177C28.8619 14.8177 28.3746 15.305 28.3746 15.9063C28.3746 20.7977 24.3955 24.7768 19.5046 24.7768C14.6136 24.7768 10.6345 20.7977 10.6345 15.9063C10.6345 15.305 10.1471 14.8177 9.54578 14.8177C8.94433 14.8177 8.45703 15.305 8.45703 15.9063Z" fill="#8E8DCF"/>
</svg>
