<svg xmlns="http://www.w3.org/2000/svg" width="150" height="32"><style>.st0{fill:#81c400}.st1{fill:#d8e3e6}</style><path class="st0" d="M11.4 31.6c-.5 0-1-.3-1.3-.8-.4-.7-.1-1.6.6-2l12.5-6.5c.7-.4 1.6-.1 2 .6.4.7.1 1.6-.6 2l-12.5 6.5c-.2.2-.5.2-.7.2zM2.2 14.5c-.5 0-1-.3-1.3-.8-.4-.7-.1-1.6.6-2L23.2.5c.7-.4 1.6-.1 2 .6.4.7.1 1.6-.6 2L2.9 14.3c-.3.2-.5.2-.7.2zm5.7 8.3c-.2 0-.5 0-.7-.2l-5.7-2.9c-.5-.3-.8-.8-.8-1.3s.3-1.1.8-1.4L23.2 5.8c.7-.4 1.6-.1 2 .6.4.7.1 1.6-.6 2l-19.2 10L8.6 20c.7.4 1 1.3.6 2-.3.5-.8.8-1.3.8z"/><path class="st0" d="M2.2 31.1c-.5 0-1-.3-1.3-.8-.4-.7-.1-1.6.6-2l19.2-9.9-3.2-1.7c-.7-.4-1-1.3-.6-2s1.3-1 2-.6l5.7 2.9c.5.3.8.8.8 1.3s-.3 1.1-.8 1.3L2.9 30.9c-.3.2-.5.2-.7.2z"/><circle class="st1" cx="13" cy="18" r="1.5"/><path class="st1" d="M37.8 29.1c-.1 0-.3-.2-.3-.5s.3-.3.4-.3c.5.1.6-.2.8-.6l.3-.8-1.8-4.9c-.1-.3.1-.4.4-.4.3 0 .4.1.5.4l1.1 3.2c.1.2.1.4.2.7 0-.2.1-.5.2-.7l1.1-3.2c.1-.3.2-.4.5-.4s.5.1.4.4l-2 5.6c-.3.9-.7 1.7-1.8 1.5zm7.7-7.2c1.1 0 1.6.5 1.6 1.3 0 .6-.2 1-.8 1.2.8.2 1 .8 1 1.4 0 .9-.7 1.5-1.6 1.5h-1.8c-.8 0-.8-.5-.8-1v-3.4c0-.5 0-1 .8-1h1.6zm-1.6 2.2h1.5c.4 0 .8-.3.8-.8s-.3-.8-.8-.8h-1.3c-.3 0-.3.1-.3.3v1.3zm0 2.2c0 .2 0 .3.3.3h1.3c.6 0 .9-.3.9-.9s-.3-.9-.9-.9H44v1.5zm7.2 1.1c-1.7 0-2.4-1.4-2.4-2.8 0-1.5.7-2.9 2.4-2.9 1.3 0 2.2.9 2.2 2.2 0 .4-.1.7-.9.7h-2.8c0 1 .4 2.1 1.5 2.1.6 0 1.1-.3 1.3-.9.1-.2.3-.3.5-.3s.4.2.3.4c-.2 1-1.1 1.5-2.1 1.5zm0-5.1c-.9 0-1.5.9-1.5 1.7h2.6c.1 0 .2 0 .2-.3 0-.8-.4-1.4-1.3-1.4zm6.8-.4c.8 0 .8.5.8 1V27c0 .3-.2.4-.4.4s-.4-.1-.4-.4v-4.2c0-.2 0-.3-.3-.3h-1c-.3 0-.3.1-.3.3 0 .7-.1 2-.3 3-.1.9-.4 1.5-1.3 1.5-.3 0-.4-.2-.4-.3 0-.2.1-.4.3-.4.5 0 .5-.4.6-.9.1-1 .2-2.2.2-2.8 0-.5.1-1.1.9-1.1l1.6.1zm6.9 5.1c0 .3-.2.4-.4.4s-.4-.1-.4-.4v-3.9c-.1.3-.3.5-.4.8l-2 3.3c-.1.1-.2.2-.4.2s-.4-.1-.4-.4v-4.9c0-.3.2-.4.4-.4s.4.1.4.4V26c.1-.3.3-.6.5-.9l2-3.2c.1-.1.2-.1.4-.1s.4.1.4.4l-.1 4.8zm5.5 0c0 .3-.2.4-.4.4s-.4-.1-.4-.4v-2c-.3.3-.8.5-1.3.5-.8 0-1.7-.3-1.7-1.5v-1.8c0-.3.2-.4.4-.4s.4.1.4.4v1.5c0 .8.2 1.2.9 1.2.9 0 1.2-.5 1.2-1v-1.7c0-.3.2-.4.4-.4s.4.1.4.4l.1 4.8zm6.2 0c0 .3-.2.4-.4.4s-.4-.1-.4-.4v-3.9c-.1.3-.3.5-.4.8l-2 3.3c-.1.1-.2.2-.4.2s-.4-.1-.4-.4v-4.9c0-.3.2-.4.4-.4s.4.1.4.4V26c.1-.3.3-.6.5-.9l2-3.2c.1-.1.2-.1.4-.1s.4.1.4.4l-.1 4.8zm4.4-5.1c1.1 0 1.6.5 1.6 1.3 0 .6-.2 1-.8 1.2.8.2 1 .8 1 1.4 0 .9-.7 1.5-1.6 1.5h-1.8c-.8 0-.8-.5-.8-1v-3.4c0-.5 0-1 .8-1h1.6zm-1.6 2.2h1.5c.4 0 .8-.3.8-.8s-.3-.8-.8-.8h-1.3c-.3 0-.3.1-.3.3v1.3zm0 2.2c0 .2 0 .3.3.3h1.3c.6 0 .9-.3.9-.9s-.3-.9-.9-.9h-1.5v1.5zm8.3 0c-.4.8-1 1.1-1.8 1.1-.9 0-1.7-.6-1.7-1.6 0-1.6 1.7-1.9 2.8-1.9h.7c0-.4 0-.7-.1-.9-.2-.5-.8-.6-1.2-.6-.5 0-.9.2-1.1.4-.2.2-.4.1-.5 0-.1-.1-.2-.3 0-.5.4-.3 1-.5 1.8-.5 1.5 0 2 .8 2 2.2v3c0 .3-.1.4-.3.4-.3 0-.4-.1-.5-.3-.1-.3-.1-.5-.1-.8zm-.8-1.8c-.8 0-1.9.2-1.9 1.3 0 .6.4 1 1 1 .5 0 .9-.2 1.2-.5.4-.5.5-1.1.5-1.7-.4-.1-.6-.1-.8-.1zm5.6 2.9c-1.7 0-2.4-1.4-2.4-2.8 0-1.5.7-2.9 2.4-2.9 1.3 0 2.2.9 2.2 2.2 0 .4-.1.7-.9.7h-2.8c0 1 .4 2.1 1.5 2.1.6 0 1.1-.3 1.3-.9.1-.2.3-.3.5-.3s.4.2.3.4c-.2 1-1.1 1.5-2.1 1.5zm.1-5.1c-.9 0-1.5.9-1.5 1.7h2.6c.1 0 .2 0 .2-.3 0-.8-.5-1.4-1.3-1.4zm5.8 3.2l-1-1.8c-.1-.1-.2-.4-.3-.7v4c0 .3-.2.4-.4.4s-.4-.1-.4-.4v-4.8c0-.3.2-.4.4-.4.3 0 .4.1.5.4l1.5 2.7 1.5-2.7c.1-.2.3-.4.5-.4s.4.1.4.4V27c0 .3-.1.4-.4.4-.2 0-.4-.1-.4-.4v-4c-.1.3-.2.5-.3.7l-1 1.8c-.1.2-.3.4-.4.4.1-.1-.1-.2-.2-.4zm12.8-2.7V27c0 .3-.2.4-.4.4s-.4-.1-.4-.4v-4.2c0-.2 0-.3-.3-.3h-1.8c-.3 0-.3.1-.3.3V27c0 .3-.2.4-.4.4s-.4-.1-.4-.4v-4.1c0-.5 0-1 .8-1h2.3c.9 0 .9.4.9.9zm2.9-.1c.4-.5.9-1 1.7-1 1.6 0 2 1.3 2 2.8 0 1.5-.6 2.8-2.2 2.8-.7 0-1.2-.4-1.5-.8v2.3c0 .3-.2.4-.4.4s-.4-.1-.4-.4v-6.7c0-.3.2-.4.4-.4s.4.1.4.4v.6zm1.5 4c1.1 0 1.3-1.2 1.3-2.1 0-.9-.1-2.1-1.3-2.1-1 0-1.5.9-1.5 1.8v.5c0 .8.5 1.9 1.5 1.9zm5.9-4.9c1.7 0 2.3 1.1 2.3 2.8 0 1.7-.6 2.8-2.3 2.8-1.7 0-2.3-1.1-2.3-2.8 0-1.7.6-2.8 2.3-2.8zm0 .5c-1.2 0-1.4 1.2-1.4 2.2 0 1 .3 2.2 1.4 2.2 1.2 0 1.4-1.2 1.4-2.2.1-.9-.2-2.2-1.4-2.2zm6.6-.4c.8 0 .8.5.8 1v3.8c.4 0 .6.2.6.6v1c0 .3-.1.4-.4.4-.2 0-.4-.1-.4-.4v-.7c0-.2-.1-.1-.2-.1h-3.2c-.1 0-.2 0-.2.1v.7c0 .3-.1.4-.4.4s-.4-.1-.4-.4v-1c0-.4.2-.5.5-.7.2-.1.3-.4.4-1 .1-.9.1-2.3.2-2.7 0-.5.1-1 .8-1h1.9zm0 4.7v-3.8c0-.2 0-.3-.3-.3h-1.1c-.3 0-.3.1-.3.3 0 .5 0 1.8-.2 2.7-.1.5-.2.9-.4 1.1h2.3zm6-.3c-.4.8-1 1.1-1.8 1.1-.9 0-1.7-.6-1.7-1.6 0-1.6 1.7-1.9 2.8-1.9h.7c0-.4 0-.7-.1-.9-.2-.5-.8-.6-1.2-.6-.5 0-.9.2-1.1.4-.2.2-.4.1-.5 0-.1-.1-.2-.3 0-.5.4-.3 1-.5 1.8-.5 1.5 0 2 .8 2 2.2v3c0 .3-.1.4-.3.4-.3 0-.4-.1-.5-.3-.1-.3-.1-.5-.1-.8zm-.7-1.8c-.8 0-1.9.2-1.9 1.3 0 .6.4 1 1 1 .5 0 .9-.2 1.2-.5.4-.5.5-1.1.5-1.7-.4-.1-.7-.1-.8-.1zm6.6-.5c.7-.1 1-.6 1.3-1.1.1-.3.3-.7.5-1 .1-.1.2-.2.5-.2s.4.2.3.4c-.2.3-.3.7-.5 1-.2.4-.5.8-1 1 .8.1 1.1.8 1.3 1.4.2.6.3.9.5 1.4.1.2 0 .3-.2.4-.2 0-.4 0-.5-.1-.3-.3-.4-.8-.5-1.3-.3-.9-.5-1.4-1.6-1.4V27c0 .3-.2.4-.4.4s-.4-.1-.4-.4v-2.4c-1.1 0-1.3.5-1.6 1.4-.1.4-.2 1-.5 1.3-.1.1-.3.1-.5.1s-.3-.1-.2-.4c.2-.5.3-.7.5-1.4s.5-1.3 1.3-1.4c-.5-.2-.8-.6-1-1-.1-.3-.3-.7-.5-1-.2-.3 0-.4.3-.4s.4.1.5.2c.2.3.4.7.5 1 .3.5.6 1 1.3 1.1v-1.9c0-.3.2-.4.4-.4s.4.1.4.4l-.2 1.8zm8.6 3c0 .3-.2.4-.4.4s-.4-.1-.4-.4v-3.9c-.1.3-.3.5-.4.8l-2 3.3c-.1.1-.2.2-.4.2s-.4-.1-.4-.4v-4.9c0-.3.2-.4.4-.4s.4.1.4.4V26c.1-.3.3-.6.5-.9l2-3.2c.1-.1.2-.1.4-.1s.4.1.4.4l-.1 4.8zM41.6 6.2c.8 0 1.6.4 2.2 1 .5.5 1.3.6 1.8.1s.6-1.3.1-1.8c-1-1.2-2.5-1.8-4.1-1.8-3 0-5.6 2.6-5.6 5.8s2.5 5.8 5.6 5.8c1.5 0 3-.7 4-1.8.5-.5.4-1.3-.1-1.8s-1.3-.4-1.8.1c-.6.6-1.3 1-2.2 1-1.7 0-3-1.5-3-3.3s1.5-3.3 3.1-3.3zM58 4.1c-.5-.2-1 0-1.4.4l-5.1 6.1V5.3c0-.7-.6-1.3-1.3-1.3S49 4.6 49 5.3V14c0 .5.3 1 .8 1.2.1 0 .3.1.4.1.4 0 .7-.1 1-.4l5.1-6.1V14c0 .7.6 1.3 1.3 1.3.7 0 1.3-.6 1.3-1.3V5.3c-.1-.6-.4-1-.9-1.2zm64.1 0c-.5-.2-1 0-1.4.4l-5.1 6.1V5.3c0-.7-.6-1.3-1.3-1.3-.7 0-1.3.6-1.3 1.3V14c0 .5.3 1 .8 1.2.1 0 .3.1.4.1.4 0 .7-.1 1-.4l5.1-6.1V14c0 .7.6 1.3 1.3 1.3s1.3-.6 1.3-1.3V5.3c0-.6-.3-1-.8-1.2zM71.2 4c-.7 0-1.3.6-1.3 1.3v3.1h-4.8V5.3c0-.7-.6-1.3-1.3-1.3s-1.3.6-1.3 1.3V14c0 .7.6 1.3 1.3 1.3s1.3-.6 1.3-1.3v-3.1h4.8V14c0 .7.6 1.3 1.3 1.3.7 0 1.3-.6 1.3-1.3V5.3c-.1-.8-.7-1.3-1.3-1.3zm38.3 0H104c-.7 0-1.3.6-1.3 1.3V14c0 .7.6 1.3 1.3 1.3s1.3-.6 1.3-1.3V6.5h4.2c.7 0 1.3-.6 1.3-1.3s-.6-1.2-1.3-1.2zm-15-.1c-1.1 0-2.1.3-3 .9-.2-.5-.7-.8-1.2-.8-.7 0-1.3.6-1.3 1.3v12.4c0 .7.6 1.3 1.3 1.3.7 0 1.3-.6 1.3-1.3v-2.9c.9.5 1.8.9 2.9.9 1.5 0 3-.7 4-1.8.5-.6.9-1.3 1.2-2 .2-.6.3-1.3.3-2 0-3.4-2.5-6-5.5-6zm2.8 7c-.1.4-.4.8-.7 1.1-.6.6-1.3 1-2.2 1-1.1 0-2.2-.8-2.7-1.9-.1-.5-.1-2.5 0-3 .5-1.1 1.5-1.8 2.7-1.8 1.7 0 3 1.5 3 3.3.1.5 0 .9-.1 1.3zM80.8 3.7c-3 0-5.6 2.6-5.6 5.8s2.5 5.8 5.6 5.8c1.9 0 3.2-.5 3.2-.5.5-.1.9-.6.9-1.2 0-.7-.6-1.3-1.3-1.3-.1 0-.4.1-.4.1-.3.1-1 .3-2.4.3-1.3 0-2.4-.9-2.8-2.1h7.1c.7 0 1.3-.6 1.3-1.3-.1-2.9-2.5-5.6-5.6-5.6zM78 8.4c.5-1.2 1.5-2.1 2.8-2.1s2.4.9 2.8 2.1H78zm69.6-4.3c-.5-.1-1.1 0-1.4.5L143 9.5l-3.2-4.9c-.3-.5-.9-.7-1.4-.5-.5.1-.9.6-.9 1.2V14c0 .7.6 1.3 1.3 1.3.7 0 1.3-.6 1.3-1.3V9.6l1.9 2.9c.2.4.6.6 1 .6s.8-.2 1-.6l1.9-3v4.4c0 .7.6 1.3 1.3 1.3s1.3-.6 1.3-1.3V5.3c0-.6-.4-1.1-.9-1.2zm-12.9 0c-.6-.3-1.4 0-1.7.6l-2.8 6.5-2.7-6.5c-.3-.6-1-.9-1.7-.7-.6.3-.9 1-.7 1.7l3.7 8.7-.7 1.5s-.2.4-.5.4c-.7 0-1.3.6-1.3 1.3 0 .7.6 1.3 1.3 1.3 1.6 0 2.5-1.2 2.8-1.9l4.9-11.2c.3-.7.1-1.4-.6-1.7z"/></svg>