<svg version="1.1" id="Layer_1" xmlns="http://www.w3.org/2000/svg" x="0" y="0" width="42" height="50" xml:space="preserve"><style>.st0{fill:#8E8DCF}</style><path class="st0" d="M29.7 12.9C33.3 9.5 36.9 6 40.5 2.6c.6-.6-.3-1.5-.9-.9C37 3.8 34.5 5.9 32 8.1c-2.6 2.3-5.9 6.5-9.3 6.7-3.3.2-6.8-3-9.6-4.7-3.2-1.9-6.2-3.8-9.3-5.7C2.3 3.5 1 5.8 2.4 6.7c4 2.5 8 4.9 12.1 7.4 2.3 1.4 5.6 4.5 8.5 4 2.7-.4 4.9-3.5 6.7-5.2z"/><path class="st0" d="M31 26.5c3.6-3.4 7.3-6.8 10.8-10.5.7-.8-.3-1.8-1.1-1.1-2.7 2.1-5.3 4.4-7.8 6.7-2.3 2.1-5.2 5.7-8.1 7-3.3 1.6-9.3-3-12-4.5-3.4-1.9-6.8-3.8-10.2-5.6C1 17.7-.3 20 1.2 20.9c4.3 2.5 8.7 4.8 13 7.2 2.7 1.5 6.1 4.2 9.4 3.8 3-.5 5.3-3.5 7.4-5.4zm-.3 16.4c3.7-2.8 7.4-5.5 10.9-8.4.9-.7-.3-2.1-1.2-1.5-3.3 2.1-6.5 4.4-9.8 6.6-2.9 2-6.3 5.7-10 4.3-2.9-1.2-5.9-3.8-8.6-5.5l-9.4-6C.9 31.3-.7 34 1 35.1c3.8 2.4 7.6 4.9 11.4 7.3 2.8 1.8 6.2 5 9.6 5.3 3.5.1 6.3-3 8.7-4.8z"/></svg>