<svg xmlns="http://www.w3.org/2000/svg" width="22" height="22"><path d="M20.6 10.5c-.3-.1-.4-.3-.5-.6 0-.3.1-.5.3-.7.8-.6 1-1.7.6-2.6-.4-.9-1.3-1.4-2.3-1.2-.3 0-.5 0-.7-.3-.2-.2-.2-.5-.2-.8.3-.9-.1-1.9-.9-2.5-.8-.5-1.9-.4-2.6.2-.2.2-.5.3-.7.2-.3-.1-.5-.3-.5-.6C12.8.6 12 0 11 0S9.2.8 8.9 1.7c0 .3-.2.5-.5.6-.3.1-.5 0-.7-.2-.8-.6-1.8-.7-2.6-.2-.8.5-1.2 1.5-.9 2.5.1.3 0 .6-.2.8-.1.1-.4.2-.7.2-1-.2-1.9.3-2.3 1.2-.4.9-.1 1.9.6 2.5.2.2.3.4.3.7 0 .3-.2.5-.5.6-.9.4-1.4 1.3-1.3 2.3.1 1 .9 1.7 1.9 1.8.3 0 .5.2.6.4.1.3.1.5-.1.8-.5.8-.5 1.9.2 2.6.6.7 1.7.9 2.5.5.2-.1.5-.1.8 0 .2.2.4.4.4.7 0 1 .6 1.8 1.5 2.1.2.1.4.1.6.1.7 0 1.4-.4 1.8-1 .1-.2.4-.4.7-.4.3 0 .5.1.7.4.5.8 1.5 1.2 2.4.9.9-.3 1.6-1.1 1.5-2.1 0-.3.1-.5.4-.7.2-.1.5-.2.8 0 .9.4 1.9.2 2.5-.5.6-.7.7-1.8.2-2.6-.2-.2-.2-.5-.1-.8.1-.3.3-.4.6-.4 1-.1 1.7-.9 1.9-1.8.1-.9-.4-1.8-1.3-2.2zM9 6.3c.7 0 1.4.6 1.4 1.4S9.7 9 9 9s-1.4-.6-1.4-1.4.6-1.3 1.4-1.3zm4 9.4c-.7 0-1.4-.6-1.4-1.4 0-.7.6-1.4 1.4-1.4s1.4.6 1.4 1.4c0 .8-.6 1.4-1.4 1.4zm1.9-7.6l-6.8 6.8c-.1.1-.3.2-.5.2s-.3-.1-.5-.2c-.3-.3-.3-.7 0-1l6.8-6.8c.3-.3.7-.3 1 0 .2.3.2.7 0 1z" fill="#00A18C"/></svg>