<svg xmlns="http://www.w3.org/2000/svg" width="20" height="20"><path d="M18.7 5c-.9-1.5-2.1-2.7-3.6-3.6C13.5.4 11.8 0 10 0 8.2 0 6.5.4 5 1.3 3.4 2.2 2.2 3.4 1.3 5 .4 6.5 0 8.2 0 10s.4 3.5 1.3 5 2.1 2.7 3.6 3.6c1.5.9 3.2 1.3 5 1.3s3.5-.4 5-1.3 2.7-2.1 3.6-3.6c.9-1.5 1.3-3.2 1.3-5 .2-1.8-.2-3.5-1.1-5zm-7 11.2c0 .1 0 .2-.1.3-.1.1-.2.1-.3.1H8.8c-.1 0-.2 0-.3-.1-.1-.1-.1-.2-.1-.3v-2.5c0-.1 0-.2.1-.3.1-.1.2-.1.3-.1h2.5c.1 0 .2 0 .3.1.1.1.1.2.1.3v2.5zm-.1-4.4c0 .1-.1.2-.1.2-.1.1-.2.1-.3.1H8.8c-.1 0-.2 0-.3-.1-.1-.1-.1-.1-.1-.2l-.3-8.1c0-.1 0-.2.1-.2.1-.1.2-.1.3-.1h2.9c.1 0 .2 0 .3.1.1.1.1.1.1.2l-.2 8.1z" fill="#fff"/></svg>