<svg version="1.1" id="Layer_1" xmlns="http://www.w3.org/2000/svg" x="0" y="0" width="48" height="48" xml:space="preserve"><style>.st0{fill:#8E8DCF}</style><g id="Layer_13"><path class="st0" d="M34.7 32c7.9-5.9 9.5-17.1 3.6-24.9s-17.1-9.4-25-3.5-9.4 17-3.5 24.9c1 1.3 2.2 2.5 3.6 3.6l-9.2 9.2c-.2.2-.3.6-.1.9.1.3.5.5.8.4l6.1-.7v5.3c0 .3.2.6.5.7.1 0 .2.1.3.1.2 0 .4-.1.6-.2L24 35.9l11.8 11.8c.1.1.3.2.6.2.1 0 .2 0 .3-.1.3-.1.5-.4.5-.7v-5.3l6.1.7c.3 0 .6-.1.8-.4.1-.3.1-.6-.1-.9L34.7 32zM7.8 17.8C7.8 8.8 15 1.6 24 1.6s16.2 7.3 16.2 16.2S33 34.1 24 34.1 7.8 26.8 7.8 17.8zm4.3 22.6c-.2-.1-.4-.2-.6-.2l-4.8.5 7.9-7.9c2.3 1.4 4.9 2.3 7.6 2.6l-9.8 9.8V41c0-.2-.1-.4-.3-.6zm24.4-.2c-.2 0-.4 0-.6.2-.2.1-.3.4-.3.6v4.3l-9.8-9.8c2.7-.3 5.3-1.2 7.6-2.6l7.9 7.9-4.8-.6z"/><path class="st0" d="M38.7 17.8c0-8.1-6.6-14.7-14.7-14.7S9.3 9.7 9.3 17.8 15.9 32.5 24 32.5s14.7-6.6 14.7-14.7zm-27.3-3.9h7.9c.2 0 .4-.1.6-.2l3.1-3.1c.1-.1.2-.3.2-.6V7.8c.9 0 1.5.7 1.5 1.5v3.9c0 .4.3.8.8.8h7v1.5h-6.2V17h6.2v1.5h-6.2V20h6.2v1.5h-6.2V23h6.2v1c0 .4-.3.8-.8.8h-9.1l-2.9-1.5c-.1-.1-.2-.1-.3-.1H12c-.8-1.7-1.2-3.5-1.2-5.4 0-1.3.2-2.6.6-3.9zm1.5 10.9h6.3l2.9 1.5c.1.1.2.1.3.1h9.3c1.3 0 2.3-1 2.3-2.3V13.2c0-.4-.3-.8-.8-.8h-7V9.3c0-1.7-1.4-3.1-3.1-3.1h-.8c-.4 0-.8.3-.8.8v2.8L19 12.4h-7c3-6.6 10.8-9.6 17.4-6.6S39 16.6 36 23.2c-3 6.6-10.8 9.6-17.4 6.6-2.4-1.1-4.4-2.8-5.7-5zm-6.7-17c.4 0 .8-.4.8-.8v-.2l-.7-2.3 1.1-.8c.3-.1.4-.5.3-.7 0-.3-.3-.6-.6-.6l-1.7-.5L4.6.4C4.4 0 3.9-.1 3.5.1l-.3.3-.7 1.5-1.9.4c-.3.1-.5.4-.6.7 0 .3.1.6.3.7l1.1.8-.6 2.3c-.1.3 0 .7.3.8.3.2.6.2.9 0l1.9-1.4 1.9 1.4c.1.1.2.1.4.2zM5 3.6c-.3.2-.4.5-.3.9l.1.5-.5-.3c-.3-.2-.6-.2-.9 0l-.5.3.2-.6c.1-.3 0-.6-.3-.8l-.2-.1.5-.1c.2-.1.4-.2.5-.4l.3-.5.3.5c.1.2.3.3.5.4l.6.1-.3.1zM48 3c0-.3-.3-.6-.6-.6l-1.8-.5-.8-1.5c-.2-.4-.7-.5-1-.3l-.3.3-.8 1.5-1.9.5c-.3.1-.5.3-.6.6s.1.6.3.8l1.1.8-.6 2.2c-.1.3 0 .7.3.8.3.2.6.2.9 0l1.9-1.4L46 7.6c.1.1.3.2.5.2.4 0 .8-.3.8-.7v-.2l-.6-2.2 1.1-.8c.1-.3.2-.6.2-.9zm-2.8.6c-.3.2-.4.5-.3.8l.2.6-.5-.4c-.3-.2-.6-.2-.9 0l-.6.4.2-.6c.1-.3 0-.6-.3-.8l-.2-.2.5-.1c.2-.1.4-.2.5-.4l.3-.5.3.5c.1.2.3.3.5.4l.6.1-.3.2z"/></g></svg>